<?xml version="1.0" encoding="iso-8859-1"?>
<!-- Generator: Adobe Illustrator 16.0.0, SVG Export Plug-In . SVG Version: 6.00 Build 0)  -->
<!DOCTYPE svg PUBLIC "-//W3C//DTD SVG 1.1//EN" "http://www.w3.org/Graphics/SVG/1.1/DTD/svg11.dtd">
<svg version="1.1" id="Capa_1" xmlns="http://www.w3.org/2000/svg" xmlns:xlink="http://www.w3.org/1999/xlink" x="0px" y="0px"
	 width="49.076px" height="49.076px" viewBox="0 0 49.076 49.076" style="enable-background:new 0 0 49.076 49.076;"
	 xml:space="preserve">
<g>
	<g id="Layer_1_copy_11_">
		<path d="M5.205,24.78c-1.243,0-2.447,0-3.621,0c-0.05,1.029-0.074,2.041-0.156,3.051c-0.073,0.896-0.271,1.775-0.667,2.621
			c-0.131,0.279-0.288,0.463-0.688,0.396C0.052,30.844,0.026,30.86,0,30.87c0,0.744,0,1.484,0,2.224c0.365,0,0.709,0,1.081,0
			c0-0.503,0-0.986,0-1.468c1.313,0,2.6,0,3.915,0c0,0.498,0,0.98,0,1.472c0.366,0,0.702,0,1.05,0c0-0.752,0-1.494,0-2.257
			c-0.289,0-0.556,0-0.841,0C5.205,28.811,5.205,26.804,5.205,24.78z M4.032,30.833c-0.812,0-1.615,0-2.37,0
			c0.202-0.506,0.449-1.004,0.599-1.521c0.301-1.039,0.299-2.105,0.307-3.168c0.002-0.164,0-0.33,0-0.51c0.491,0,0.967,0,1.465,0
			C4.032,27.354,4.032,29.079,4.032,30.833z M11.833,18.081c-0.687,0-1.346,0-2.043,0c0,0.254,0.009,0.482-0.001,0.711
			c-0.034,0.796-0.063,1.593-0.395,2.355c-0.082,0.188-0.143,0.389-0.46,0.347c0,0.424,0,0.828,0,1.23c0.2,0,0.379,0,0.589,0
			c0-0.275,0-0.537,0-0.799c0.748,0,1.464,0,2.213,0c0,0.277,0,0.539,0,0.795c0.21,0,0.387,0,0.557,0c0-0.424,0-0.828,0-1.232
			c-0.16-0.006-0.296-0.012-0.46-0.018C11.833,20.334,11.833,19.212,11.833,18.081z M11.188,21.47c-0.466,0-0.904,0-1.376,0
			c0.597-0.924,0.516-1.917,0.559-2.908c0.273,0,0.537,0,0.817,0C11.188,19.53,11.188,20.489,11.188,21.47z M10.336,30.985
			c-1.059,0.217-1.751-0.076-2.053-0.844c-0.233-0.59-0.224-1.199-0.234-1.842c1.16,0,2.285,0,3.456,0
			c-0.048-0.535-0.053-1.057-0.15-1.562c-0.123-0.633-0.367-1.24-0.872-1.75c-0.447-0.451-0.985-0.582-1.656-0.4
			c-0.697,0.189-1.122,0.627-1.408,1.146c-0.838,1.523-0.91,3.092-0.268,4.674c0.193,0.478,0.52,0.894,1.064,1.16
			c0.912,0.449,2.387,0.293,3.312-0.354c-0.073-0.18-0.147-0.362-0.213-0.522C10.971,30.797,10.662,30.918,10.336,30.985z
			 M8.571,25.797c0.163-0.229,0.38-0.416,0.744-0.399c0.356,0.019,0.567,0.205,0.71,0.447c0.316,0.543,0.369,1.125,0.366,1.729
			c-0.796,0-1.565,0-2.375,0C8.076,26.934,8.188,26.336,8.571,25.797z M14.435,22.108c0.287-0.03,0.574-0.111,0.844-0.205
			c0.301-0.104,0.309-0.2,0.101-0.422c-0.183,0.053-0.359,0.117-0.543,0.154c-0.513,0.104-0.879-0.01-1.074-0.333
			c-0.229-0.378-0.218-0.784-0.204-1.209c0.658,0,1.29,0,1.935,0c0.042-0.636-0.036-1.232-0.439-1.774
			c-0.354-0.476-0.967-0.552-1.454-0.161c-0.183,0.146-0.337,0.333-0.445,0.523c-0.302,0.529-0.417,1.099-0.346,1.677
			c0.045,0.359,0.144,0.724,0.297,1.062C13.329,21.917,13.842,22.171,14.435,22.108z M13.88,18.615
			c0.218-0.271,0.578-0.263,0.771,0.021c0.216,0.315,0.242,0.663,0.233,1.028c-0.469,0-0.898,0-1.348,0
			C13.557,19.282,13.63,18.928,13.88,18.615z M19.053,21.907c-0.225,0-0.412,0.015-0.594-0.008c-0.068-0.009-0.14-0.094-0.182-0.157
			c-0.322-0.476-0.637-0.955-0.956-1.434c-0.045-0.068-0.096-0.133-0.215-0.206c-0.04,0.152-0.11,0.304-0.116,0.456
			c-0.016,0.442-0.006,0.886-0.006,1.339c-0.221,0-0.41,0-0.62,0c0-1.264,0-2.529,0-3.815c0.206,0,0.395,0,0.611,0
			c0,0.545,0,1.079,0,1.68c0.096-0.093,0.146-0.134,0.186-0.181c0.352-0.419,0.717-0.831,1.046-1.263
			c0.149-0.196,0.316-0.285,0.59-0.248c0.067,0.009,0.138,0.001,0.259,0.001c-0.064,0.084-0.104,0.142-0.15,0.197
			c-0.375,0.449-0.744,0.902-1.13,1.346c-0.104,0.119-0.098,0.206-0.017,0.326C18.186,20.581,18.604,21.225,19.053,21.907z
			 M7.615,20.239c-0.397,0-0.767,0-1.167,0c0,0.582,0,1.158,0,1.75c-0.226,0-0.421,0-0.637,0c0-1.297,0-2.591,0-3.908
			c0.209,0,0.399,0,0.618,0c0,0.526,0,1.047,0,1.584c0.404,0,0.779,0,1.182,0c0-0.526,0-1.047,0-1.579c0.224,0,0.419,0,0.633,0
			c0,1.301,0,2.597,0,3.905c-0.209,0-0.404,0-0.629,0C7.615,21.406,7.615,20.829,7.615,20.239z M17.159,24.907
			c0.017,0.019,0.003,0.055,0.003,0.084c0,2.16,0,4.322,0,6.484c0,0.062-0.008,0.127-0.013,0.203c-0.373,0-0.733,0-1.122,0
			c0-1.037,0-2.066,0-3.127c-0.53,0-1.032,0-1.534,0c-0.53,0-0.53,0-0.53,0.443c-0.001,0.805,0,1.606,0,2.412c0,0.084,0,0.17,0,0.27
			c-0.384,0-0.743,0-1.118,0c0-2.303,0-4.596,0-6.901c0.364,0,0.717,0,1.104,0c0,0.942,0,1.872,0,2.821c0.716,0,1.376,0,2.07,0
			c0-0.941,0-1.877,0-2.826c0.353,0,0.673-0.005,0.992,0.008C17.064,24.78,17.117,24.857,17.159,24.907z M32.463,24.756
			c0.346,0.015,0.692,0.005,1.055,0.005c0,2.317,0,4.61,0,6.919c-0.418,0-0.824,0-1.262,0c0-1.51,0-3.021,0-4.539
			c-0.703,1.525-1.4,3.037-2.097,4.543c-0.38,0-0.728,0-1.097,0c0-2.301,0-4.602,0-6.911c0.369,0,0.729,0,1.117,0
			c0,1.427,0,2.843,0,4.259c0.019,0.002,0.034,0.006,0.053,0.008c0.195-0.416,0.395-0.832,0.588-1.248
			c0.441-0.951,0.885-1.9,1.318-2.854C32.202,24.801,32.283,24.75,32.463,24.756z M1.759,21.998c0.212,0.019,0.321-0.05,0.419-0.207
			c0.374-0.607,0.771-1.205,1.159-1.807c0.179-0.276,0.201-0.284,0.623-0.203c0,0.728,0,1.462,0,2.195c0.255,0,0.476,0,0.716,0
			c0-0.126,0-0.232,0-0.34c0-1.786,0-3.573,0-5.36c0-0.297-0.001-0.296-0.371-0.297c-0.341,0-0.68,0.001-1.02,0
			c-0.48-0.002-0.878,0.148-1.205,0.437c-1.123,0.994-0.828,2.882,0.666,3.285c-0.502,0.754-1.001,1.506-1.524,2.294
			C1.435,21.995,1.599,21.984,1.759,21.998z M2.574,18.902c-0.425-0.417-0.546-0.899-0.389-1.428
			c0.013-0.042,0.034-0.082,0.051-0.122c0.316-0.727,0.733-0.929,1.704-0.808c0,0.869,0,1.726,0,2.607
			C3.453,19.146,2.945,19.267,2.574,18.902z M19.744,21.418c-0.38-0.505-0.451-1.063-0.398-1.638
			c0.047-0.501,0.192-0.978,0.563-1.39c0.48-0.534,1.363-0.635,2.007-0.212c-0.087,0.109-0.167,0.211-0.245,0.308
			c-0.027,0.004-0.045,0.011-0.06,0.007c-0.78-0.211-1.249-0.021-1.485,0.617c-0.175,0.467-0.211,0.949-0.11,1.428
			c0.192,0.924,0.924,1.244,1.985,0.89c0.098,0.43,0.042,0.482-0.459,0.6C20.832,22.194,20.142,21.946,19.744,21.418z
			 M49.057,25.293c-0.065-0.375-0.381-0.6-0.838-0.605c-0.141-0.002-0.281,0.012-0.418-0.003c-0.27-0.028-0.341,0.062-0.339,0.276
			c0.013,1.05,0.009,2.099,0.005,3.146c-0.003,0.549-0.539,1.113-1.183,1.256c-2,0.439-3.998,0.885-5.999,1.32
			c-0.225,0.049-0.462,0.074-0.691,0.072c-0.1,0-0.238-0.076-0.281-0.15c-0.028-0.049,0.06-0.168,0.129-0.229
			c0.091-0.074,0.207-0.133,0.326-0.174c0.367-0.131,0.74-0.25,1.111-0.373c1.485-0.494,2.973-0.982,4.456-1.479
			c0.669-0.226,1.03-0.672,1.041-1.235c0.034-1.824,0.017-3.648,0.009-5.474c0-0.289-0.15-0.53-0.494-0.655
			c-0.396-0.142-0.744-0.029-1.088,0.135c-2.102,1.003-4.203,2.004-6.306,3.005c-0.619,0.295-0.964,0.722-0.961,1.33
			c0.007,1.725,0.002,3.447,0.004,5.17c0,0.086,0.009,0.174,0.036,0.256c0.207,0.586,0.744,0.922,1.486,0.922
			c1.479,0.004,2.963,0.002,4.443,0.002c1.475,0,2.945,0.002,4.42-0.002c0.32,0,0.615-0.066,0.855-0.264
			c0.311-0.25,0.295-0.568,0.295-0.885c0.001-1.681,0.001-3.359-0.001-5.041C49.077,25.509,49.075,25.399,49.057,25.293z
			 M42.907,24.754c0.149-0.387,0.474-0.629,0.97-0.691c0.328-0.042,0.614,0.161,0.661,0.457c0.071,0.456-0.499,0.986-1.062,0.984
			C43.007,25.504,42.745,25.175,42.907,24.754z M21.312,27.256c-0.444-0.034-0.896-0.006-1.375-0.006c0-0.819,0-1.647,0-2.473
			c-0.34,0-0.648,0-0.964,0c0,2.276,0,4.536,0,6.875c0.713,0,1.402,0.041,2.082-0.011c1.019-0.076,1.796-0.481,2.16-1.312
			c0.212-0.482,0.216-0.984,0.116-1.488C23.145,27.913,22.439,27.349,21.312,27.256z M21.84,29.884
			c-0.179,0.76-0.957,1.118-1.895,0.896c0-0.844-0.004-1.674,0.008-2.506c0-0.055,0.096-0.145,0.165-0.158
			c0.938-0.199,1.565,0.113,1.728,0.896C21.904,29.293,21.906,29.602,21.84,29.884z M24.365,24.77c1.391,0,2.755,0,4.137,0
			c0,0.229,0,0.448,0,0.695c-1.029,0-2.061,0-3.113,0c0,2.085,0,4.142,0,6.214c-0.35,0-0.677,0-1.021,0
			C24.365,29.381,24.365,27.084,24.365,24.77z"/>
	</g>
</g>
<g>
</g>
<g>
</g>
<g>
</g>
<g>
</g>
<g>
</g>
<g>
</g>
<g>
</g>
<g>
</g>
<g>
</g>
<g>
</g>
<g>
</g>
<g>
</g>
<g>
</g>
<g>
</g>
<g>
</g>
</svg>
