<?xml version="1.0" encoding="utf-8"?>
<!-- Generator: Adobe Illustrator 23.0.1, SVG Export Plug-In . SVG Version: 6.00 Build 0)  -->
<svg version="1.1" id="Слой_1" xmlns="http://www.w3.org/2000/svg" xmlns:xlink="http://www.w3.org/1999/xlink" x="0px" y="0px"
	 viewBox="0 0 650 220" style="enable-background:new 0 0 650 220;" xml:space="preserve">
<style type="text/css">
	.st0{fill:none;}
	.st1{fill:#3475A8;}
	.st2{fill:#FFFFFF;}
	.st3{fill:#0CBA68;}
	.st4{fill:#0DCA71;}
	.st5{fill:#7FE680;}
	.st6{fill:#B6FF9E;}
	.st7{fill:#FFECBB;}
	.st8{fill:#06995E;}
	.st9{fill:#0BAD61;}
	.st10{fill:#FFE5A5;}
	.st11{fill:#069159;}
	.st12{fill:#262B2F;}
	.st13{fill:#A56A43;}
	.st14{fill:#CB8252;}
	.st15{fill:#F0C419;}
</style>
<g>
	<rect x="-76.6" y="33" class="st0" width="558.4" height="317.2"/>
	<g>
		<g>
			<path class="st1" d="M233,154.2c-3.8,0-7.5-0.7-11.1-2.1s-6.6-3.4-9.1-6l0.6-5.9V183h-20.2V87.7h17.4l2.9,12.3l-1.6-4.3
				c3.3-2.8,7-5.1,11-7c4.1-1.8,8.7-2.8,14.1-2.8c5.9,0,11.2,1.4,15.8,4.1c4.6,2.8,8.3,6.7,10.9,11.9c2.7,5.2,4,11.4,4,18.6
				s-1.5,13.2-4.5,18.3c-3,5-7.1,8.8-12.3,11.5C245.7,152.9,239.7,154.2,233,154.2z M228.9,138.3c3.3,0,6.3-0.7,9.1-2.2
				s5-3.5,6.7-6.2s2.5-5.7,2.5-9.1c0-3.6-0.8-6.7-2.2-9.4c-1.5-2.7-3.5-4.7-6.1-6.2s-5.4-2.2-8.5-2.2c-2.7,0-5.1,0.4-7.2,1.1
				c-2.1,0.7-3.9,1.8-5.5,3.2c-1.6,1.4-3,3.2-4.1,5.3v15.5c0.8,2,1.9,3.8,3.3,5.4c1.5,1.5,3.2,2.7,5.3,3.6
				C224.3,137.9,226.5,138.3,228.9,138.3z"/>
			<path class="st1" d="M305.8,152.8l-31-63.7h22.8l23.9,53.5L305.8,152.8z M288.8,183L331,89.1h18.3L308.4,183H288.8z"/>
			<path class="st2" d="M402.8,154.2c-5.3,0-9.8-0.9-13.4-2.7s-6.8-4.1-9.5-7l1.6-4.4v12.3h-20.3V38.1h20.2V100v-6.5
				c2.5-2.1,5.8-3.9,10-5.4s8.9-2.2,14.2-2.2c5.5,0,10.5,1.3,15.1,3.9c4.5,2.6,8.2,6.4,10.9,11.4c2.8,5,4.1,11,4.1,18.2
				c0,7.2-1.5,13.3-4.6,18.6s-7.1,9.2-12.1,12C414,152.8,408.6,154.2,402.8,154.2z M398.3,137.1c3,0,5.8-0.8,8.3-2.3
				c2.6-1.5,4.6-3.7,6.2-6.4c1.5-2.7,2.3-5.8,2.3-9.1c0-3.4-0.8-6.4-2.3-9s-3.6-4.7-6.2-6.2s-5.3-2.2-8.3-2.2
				c-2.6,0-5.1,0.4-7.3,1.2c-2.3,0.8-4.2,2-5.8,3.5c-1.6,1.5-2.8,3.3-3.7,5.4v15.5c1.2,2.1,2.5,3.9,4.1,5.3c1.6,1.4,3.5,2.5,5.6,3.2
				C393.3,136.8,395.7,137.1,398.3,137.1z"/>
			<path class="st2" d="M451.6,38.1h20.3v114.4h-20.3V38.1z"/>
			<path class="st2" d="M487.9,120c0-6.5,1.5-12.3,4.6-17.4c3-5.1,7.3-9.2,12.8-12.1s11.8-4.4,19-4.4c7.3,0,13.5,1.5,18.8,4.4
				s9.4,7,12.3,12.1c2.8,5.1,4.3,10.9,4.3,17.4s-1.4,12.3-4.3,17.5c-2.9,5.2-6.9,9.3-12.3,12.3c-5.3,3-11.7,4.5-19.1,4.5
				c-7,0-13.2-1.4-18.6-4.1c-5.5-2.7-9.7-6.6-12.8-11.7C489.4,133.3,487.9,127.2,487.9,120z M508.3,120.2c0,3.3,0.7,6.3,2,8.9
				c1.4,2.7,3.2,4.8,5.5,6.3s4.9,2.3,7.8,2.3c3.2,0,5.9-0.8,8.3-2.3c2.3-1.5,4.1-3.6,5.4-6.3c1.3-2.7,1.9-5.6,1.9-8.9
				c0-3.4-0.6-6.4-1.9-9c-1.3-2.6-3-4.7-5.4-6.2c-2.3-1.5-5.1-2.3-8.3-2.3c-2.9,0-5.5,0.8-7.8,2.3s-4.2,3.6-5.5,6.2
				C509,113.8,508.3,116.8,508.3,120.2z"/>
			<path class="st2" d="M608.4,184.4c-5.7,0-10.5-0.7-14.4-2c-3.9-1.4-7.2-3-9.9-4.9s-5.1-3.8-7.3-5.5l11.9-13.9
				c2.2,2,4.8,4,7.8,5.9c2.9,1.9,6.8,2.8,11.7,2.8c3.2,0,6.2-0.6,8.9-1.7c2.8-1.1,5-2.7,6.7-4.9c1.7-2.1,2.5-4.8,2.5-8v-13.9
				l0.7,3.6c-1.5,3.3-4.3,6.2-8.4,8.6c-4.1,2.5-9.4,3.7-16,3.7c-5.7,0-11-1.5-15.9-4.4s-8.8-7-11.7-12c-2.9-5.1-4.4-10.8-4.4-17.3
				c0-6.7,1.5-12.6,4.6-17.8c3.1-5.2,7.1-9.3,12-12.3s10.2-4.5,15.7-4.5s10.3,0.8,14.3,2.4s7,3.6,9.1,5.9l-0.7,1.9l2.2-7h18.7v63.4
				c0,6.2-1.7,11.7-5.2,16.5s-8.1,8.6-13.8,11.3C621.7,183,615.3,184.4,608.4,184.4z M591.1,119.9c0,3.4,0.8,6.4,2.3,9.1
				s3.6,4.8,6.3,6.4c2.7,1.5,5.6,2.3,8.9,2.3c2.8,0,5.3-0.4,7.5-1.1c2.2-0.7,4.1-1.8,5.8-3.2s3.1-3.2,4.3-5.3v-15.5
				c-0.9-2.1-2.2-3.9-3.9-5.4s-3.7-2.7-6-3.5s-4.8-1.2-7.6-1.2c-3.3,0-6.3,0.8-8.9,2.2c-2.7,1.5-4.8,3.6-6.3,6.2
				C591.9,113.5,591.1,116.5,591.1,119.9z"/>
		</g>
	</g>
</g>
<g>
	<g>
		<g>
			<path class="st3" d="M151.8,169.6c1-3.8,1.5-7.7,1.5-11.7c0-12.1,1.7-14,3.7-16.4L147.8,65H141c-11.8,0-23.1-3.6-32.7-10.5
				l-0.7-0.5c-3.9-2.8-8.4-4.2-13-4.2l-3.8,61.9l3.8,49.5L151.8,169.6z"/>
			<path class="st4" d="M94.6,161.3V49.9c-4.6,0-9.1,1.4-13,4.2l-0.7,0.5C71.3,61.4,60,65,48.2,65h-6.9l-9.8,74.4
				c2.4,2.9,4.4,5.5,4.4,18.5c0,3.9,0.5,7.8,1.4,11.7L94.6,161.3z"/>
		</g>
		<g>
			<path class="st5" d="M94.6,211.8c16.3-0.1,31.3-6.1,42.3-16.8c7.4-7.2,12.5-16,14.8-25.4l-57.2-21.2L87,176.5L94.6,211.8z"/>
			<path class="st6" d="M94.1,211.8c0.2,0,0.3,0,0.5,0v-63.4l-57.2,21.2c2.3,9.3,7.2,18.2,14.4,25.3
				C62.6,205.8,77.7,211.8,94.1,211.8L94.1,211.8z"/>
		</g>
	</g>
	<g>
		<path class="st3" d="M78.5,140.8l-0.3-0.3c-8.2-8.2-12.7-19.1-12.7-30.6v-7.1h10.7v7.1c0,8.7,3.4,16.9,9.6,23.1l0.3,0.3
			L78.5,140.8z"/>
		<ellipse class="st7" cx="39.7" cy="102.8" rx="31.1" ry="36.2"/>
		<path class="st8" d="M39.7,144.3c-20.1,0-36.5-18.6-36.5-41.5s16.4-41.5,36.5-41.5s36.5,18.6,36.5,41.5S59.9,144.3,39.7,144.3z
			 M39.7,71.9C25.5,71.9,14,85.8,14,102.8s11.6,30.8,25.8,30.8s25.8-13.8,25.8-30.8S54,71.9,39.7,71.9z"/>
	</g>
	<g>
		<path class="st9" d="M110.7,140.8l-7.6-7.6l0.3-0.3c6.2-6.2,9.6-14.4,9.6-23.1v-7.1h10.7v7.1c0,11.6-4.5,22.5-12.7,30.6
			L110.7,140.8z"/>
		<ellipse class="st10" cx="149.5" cy="102.8" rx="31.1" ry="36.2"/>
		<path class="st11" d="M149.5,144.3c-20.1,0-36.5-18.6-36.5-41.5s16.4-41.5,36.5-41.5S186,79.9,186,102.8S169.6,144.3,149.5,144.3
			L149.5,144.3z M149.5,71.9c-14.2,0-25.8,13.8-25.8,30.8s11.6,30.8,25.8,30.8s25.8-13.8,25.8-30.8
			C175.2,85.8,163.7,71.9,149.5,71.9z"/>
		<circle class="st12" cx="38.9" cy="103.5" r="4.4"/>
		<circle class="st12" cx="148.5" cy="104.5" r="4.4"/>
	</g>
</g>
<path id="Shape_1_" class="st13" d="M159.5,55.6l-0.5,0.5c-3.1,3.1-7.2,4.8-11.5,4.8H41.6c-4.3,0-8.5-1.7-11.5-4.8l-0.5-0.5
	c6.2-4.1,13-7,20.2-8.7h89.6C146.6,48.6,153.4,51.6,159.5,55.6z"/>
<g>
	<path id="Shape_2_" class="st14" d="M139.7,61.9c-2.7-35.3-8.1-57-19-57c-16.3,0-16.3,5.4-27.1,5.4S82.7,4.9,66.5,4.9
		c-10.9,0-16.3,21.7-19,57H139.7z"/>
	<path id="Shape_6_" class="st15" d="M139.7,61.9H47.5c0.4-5.8,1-11.2,1.6-16.3h89.1C138.8,50.6,139.3,56.1,139.7,61.9z"/>
	<path id="Shape_7_" class="st14" d="M146.6,64.6h-106c-5,0-9.9-2-13.4-5.6l-8.8-8.8c-1-1.1-1-2.8,0-3.8s2.7-1.1,3.8,0l8.8,8.8
		c2.5,2.6,6,4,9.6,4h105.9c3.6,0,7.1-1.4,9.6-4l8.8-8.8c1.1-1,2.8-1,3.8,0s1.1,2.7,0,3.8L160,59C156.4,62.6,151.6,64.6,146.6,64.6
		L146.6,64.6z"/>
</g>
</svg>
